<svg xmlns="http://www.w3.org/2000/svg" width="94.227" height="80.438" viewBox="0 0 94.227 80.438">
    <g data-name="Group 26633">
        <path data-name="Subtraction 25" d="M73.456 79.288H16.178a44.816 44.816 0 1 1 57.278 0z" transform="translate(2.296)" style="fill:#daeaf7"/>
        <g data-name="Group 26631">
            <g data-name="Group 26616">
                <path data-name="Path 26547" d="M12.3 16v32.175H10v20.684h7.515a4.6 4.6 0 1 1 7.986-4.55l.586-.046a4.686 4.686 0 0 1 1.459.253 6.884 6.884 0 0 1 3.138-3.916V16z" transform="translate(11.833 10.43)" style="fill:#d6e4ff"/>
            </g>
            <g data-name="Group 26617">
                <path data-name="Path 26548" d="M50.982 6v25.281h-6.894v4.6h-2.3v27.724a4.2 4.2 0 0 0-1.149-.149 4.576 4.576 0 0 0-3.16 1.264A6.9 6.9 0 0 0 28 62.077V10.6l6.895-1.379 4.6-.919 4.6-.919z" transform="translate(14.517 8.939)" style="fill:#fffdff"/>
            </g>
            <g data-name="Group 26618">
                <path data-name="Path 26549" d="M56.6 22v6.895H52V22h4.6z" transform="translate(18.096 11.325)" style="fill:#c1cef0"/>
            </g>
            <g data-name="Group 26619">
                <path data-name="Path 26550" d="M60.386 28v4.6H42V28h18.386z" transform="translate(16.604 12.22)" style="fill:#c4d9f6"/>
            </g>
            <g data-name="Group 26620">
                <path data-name="Path 26551" d="M60.684 32H40v34.473h22.982V32z" transform="translate(16.306 12.816)" style="fill:#eef4ff"/>
            </g>
            <g data-name="Group 26621">
                <path data-name="Path 26552" d="M50.895 36H44v21.615a6.761 6.761 0 0 1 3.447-.931A6.91 6.91 0 0 1 54 61.441a7.084 7.084 0 0 1 1.494-.161 6.668 6.668 0 0 1 2.3.4V36z" transform="translate(16.903 13.412)" style="fill:#c5cce8"/>
            </g>
            <g data-name="Group 26622">
                <path data-name="Path 26553" d="M40 14h4.6v6.895H40z" transform="translate(16.306 10.132)" style="fill:#dfe6f8"/>
            </g>
            <g data-name="Group 26623">
                <path data-name="Path 26554" d="M32 14h4.6v6.895H32z" transform="translate(15.113 10.132)" style="fill:#dfe6f8"/>
            </g>
            <g data-name="Group 26624">
                <path data-name="Path 26555" d="M32 24h4.6v6.895H32z" transform="translate(15.113 11.623)" style="fill:#dfe6f8"/>
            </g>
            <g data-name="Group 26625">
                <path data-name="Path 26556" d="M32 34h4.6v6.895H32z" transform="translate(15.113 13.114)" style="fill:#dfe6f8"/>
            </g>
            <g data-name="Group 26626">
                <path data-name="Path 26557" d="M32 44h4.6v6.895H32z" transform="translate(15.113 14.605)" style="fill:#dfe6f8"/>
            </g>
            <g data-name="Group 26627">
                <path data-name="Path 26558" d="M12.055 45.961a4.857 4.857 0 0 1-1.161.126c-3.8 0-6.895-3.6-6.895-8.044S7.091 30 10.895 30a5.988 5.988 0 0 1 2.3.46 7.061 7.061 0 0 1 3.424 3.114 8.81 8.81 0 0 1 1.172 4.47c-.002 3.987-2.484 7.285-5.736 7.917z" transform="translate(10.938 12.518)" style="fill:#9fdbc6"/>
            </g>
            <g data-name="Group 26628">
                <path data-name="Path 26559" d="M20.605 34.367a8.493 8.493 0 0 1 3.034 6.676c0 4.447-3.091 8.044-6.895 8.044a6.689 6.689 0 0 1-5.734-3.574c3.252-.632 5.734-3.93 5.734-7.917a8.81 8.81 0 0 0-1.172-4.47h.011A5.525 5.525 0 0 1 16.744 33a6.252 6.252 0 0 1 3.861 1.367z" transform="translate(11.983 12.965)" style="fill:#9fdbc6"/>
            </g>
            <g data-name="Group 26629" transform="translate(12.2 60.73)">
                <ellipse data-name="Ellipse 755" cx="5" cy="6" rx="5" ry="6" transform="translate(-.2 -.292)" style="fill:#9fdbc6"/>
            </g>
            <g data-name="Group 26630">
                <path data-name="Path 26560" d="M66.17 63.193H16.621a4.6 4.6 0 1 1 7.986-4.55l.586-.046a4.686 4.686 0 0 1 1.459.253 6.884 6.884 0 0 1 3.137-3.918v-.011a6.9 6.9 0 0 1 9.48 2.643A4.576 4.576 0 0 1 42.43 56.3a4.2 4.2 0 0 1 1.149.149 4.571 4.571 0 0 1 2.011 1.115 6.854 6.854 0 0 1 2.586-2.631A6.761 6.761 0 0 1 51.623 54a6.91 6.91 0 0 1 6.55 4.757 7.084 7.084 0 0 1 1.494-.161 6.668 6.668 0 0 1 2.3.4 6.942 6.942 0 0 1 4.206 4.194z" transform="translate(12.728 16.096)" style="fill:#9fdbc6"/>
            </g>
        </g>
        <g data-name="Group 26632">
            <path data-name="Path 26561" d="M71.438 69.947V35.473h-2.3v-4.6h-2.3v-6.891h-2.3v-4.6h-2.3v4.6h-2.3v6.895h-2.3V5.344l-6.884 1.379V3.3h-2.3v3.882l-2.3.46V1h-2.3v7.1l-2.3.46V3.3h-2.3v5.722L32.368 10.4v6.687H11.684v2.3h2.3V33.28a7.05 7.05 0 0 0-1.149-.1c-4.434 0-8.044 4.124-8.044 9.193 0 4.622 3 8.447 6.895 9.088v1.5a5.124 5.124 0 0 0-3.447-1.393c-3.168 0-5.746 3.092-5.746 6.895 0 3.33 1.978 6.114 4.6 6.756v4.735H-9v2.3h94.227v-2.3zM20.877 68.8a3.448 3.448 0 0 1 6.452-1.693l.356.631 1.235-.087a3.4 3.4 0 0 1 1.089.2l1.117.375.348-1.125A5.746 5.746 0 0 1 42 66.025l.718 1.3 1.075-1.025a3.5 3.5 0 0 1 4.729 0l1.078 1.026.718-1.3a5.745 5.745 0 0 1 10.495 1l.323.992 1.019-.225a5.727 5.727 0 0 1 5.812 2.159H21.1a3.443 3.443 0 0 1-.223-1.149zM69.14 37.772v30.034a8.113 8.113 0 0 0-2.3-1.656V40.07H50.754v22.143a8.061 8.061 0 0 0-1.726 1.613 5.279 5.279 0 0 0-.572-.282V37.772zM55.35 60.754a8 8 0 0 0-2.3.349V42.368h4.6v18.719a8.072 8.072 0 0 0-2.3-.333zm4.6-18.386h4.6v23.09a7.883 7.883 0 0 0-1.909-.071 8.012 8.012 0 0 0-2.688-3.176zm-9.193-6.895v-2.3h16.084v2.3zm11.491-9.193h2.3v4.6h-2.3zM55.35 8.147v22.73h-6.894v4.6h-2.3v27.6a5.725 5.725 0 0 0-2.87.757 8.051 8.051 0 0 0-6.322-3.073 8.14 8.14 0 0 0-2.3.33v-48.8zM16.281 19.386h16.087V62.2a7.979 7.979 0 0 0-2.7 3.2 5.82 5.82 0 0 0-.743-.054 5.726 5.726 0 0 0-10.216 4.593h-4.727v-4.165l6.895-8.043V54.9c3.891-.641 6.895-4.467 6.895-9.088a9.469 9.469 0 0 0-4.159-8.044h1.86v-2.3h-2.3v2.049a7.165 7.165 0 0 0-3.447-.9c-.2 0-.4.013-.6.032a8.361 8.361 0 0 0-2.843-2.58zm4.6 22.982a10.283 10.283 0 0 0-.581-3.413c2.9.344 5.178 3.289 5.178 6.86 0 3.8-2.577 6.895-5.746 6.895a5.258 5.258 0 0 1-3.879-1.826 9.28 9.28 0 0 0 5.024-8.516zm-6.895 9.861a7.7 7.7 0 0 0 4.6 2.679v1.975l-4.6 5.363zm-6.898-9.861c0-3.8 2.577-6.895 5.746-6.895s5.746 3.092 5.746 6.895c0 3.33-1.978 6.114-4.6 6.756v-7.9h-2.3v7.9c-2.615-.641-4.592-3.424-4.592-6.756zm-2.3 16.088c0-2.535 1.547-4.6 3.447-4.6s3.447 2.062 3.447 4.6-1.547 4.6-3.447 4.6-3.446-2.065-3.446-4.6zm4.6 6.756a5.331 5.331 0 0 0 2.3-1.253v5.988h-2.3z" transform="translate(9 8.193)" style="fill:#394453"/>
            <path data-name="Path 26562" d="M37.895 13H31v9.193h6.895zm-2.3 6.895H33.3V15.3h2.3z" transform="translate(14.965 9.982)" style="fill:#394453"/>
            <path data-name="Path 26563" d="M37.895 23H31v9.193h6.895zm-2.3 6.895H33.3V25.3h2.3z" transform="translate(14.965 11.473)" style="fill:#394453"/>
            <path data-name="Path 26564" d="M37.895 33H31v9.193h6.895zm-2.3 6.895H33.3V35.3h2.3z" transform="translate(14.965 12.965)" style="fill:#394453"/>
            <path data-name="Path 26565" d="M37.895 43H31v9.193h6.895zm-2.3 6.895H33.3V45.3h2.3z" transform="translate(14.965 14.456)" style="fill:#394453"/>
            <path data-name="Path 26566" d="M45.895 13H39v9.193h6.895zm-2.3 6.895H41.3V15.3h2.3z" transform="translate(16.157 9.982)" style="fill:#394453"/>
            <path data-name="Path 26567" d="M19 19h2.3v2.3H19z" transform="translate(13.175 10.877)" style="fill:#394453"/>
            <path data-name="Path 26568" d="M23 19h2.3v2.3H23z" transform="translate(13.772 10.877)" style="fill:#394453"/>
            <path data-name="Path 26569" d="M15 19h2.3v2.3H15z" transform="translate(12.579 10.877)" style="fill:#394453"/>
            <path data-name="Path 26570" d="M19 23h2.3v2.3H19z" transform="translate(13.175 11.473)" style="fill:#394453"/>
            <path data-name="Path 26571" d="M15 23h2.3v2.3H15z" transform="translate(12.579 11.473)" style="fill:#394453"/>
            <path data-name="Path 26572" d="M23 23h2.3v2.3H23z" transform="translate(13.772 11.473)" style="fill:#394453"/>
            <path data-name="Path 26573" d="M15 27h2.3v2.3H15z" transform="translate(12.579 12.07)" style="fill:#394453"/>
            <path data-name="Path 26574" d="M19 27h2.3v2.3H19z" transform="translate(13.175 12.07)" style="fill:#394453"/>
            <path data-name="Path 26575" d="M23 27h2.3v2.3H23z" transform="translate(13.772 12.07)" style="fill:#394453"/>
            <path data-name="Path 26576" d="M23 31h2.3v2.3H23z" transform="translate(13.772 12.666)" style="fill:#394453"/>
        </g>
    </g>
</svg>
